<svg width="34" height="32" viewBox="0 0 34 32" fill="none" xmlns="http://www.w3.org/2000/svg">
<rect width="34" height="32" rx="8" fill="#F5FFED"/>
<path d="M15.2857 11.9531V13.2188H18.7143V11.9531C18.7143 11.0224 17.9455 10.2656 17 10.2656C16.0545 10.2656 15.2857 11.0224 15.2857 11.9531ZM14 14.4844H12.2857V19.9688C12.2857 20.6675 12.8616 21.2344 13.5714 21.2344H20.4286C21.1384 21.2344 21.7143 20.6675 21.7143 19.9688V14.4844H20V15.9609C20 16.3116 19.7134 16.5938 19.3571 16.5938C19.0009 16.5938 18.7143 16.3116 18.7143 15.9609V14.4844H15.2857V15.9609C15.2857 16.3116 14.9991 16.5938 14.6429 16.5938C14.2866 16.5938 14 16.3116 14 15.9609V14.4844ZM14 13.2188V11.9531C14 10.321 15.342 9 17 9C18.658 9 20 10.321 20 11.9531V13.2188H21.7143C22.4241 13.2188 23 13.7856 23 14.4844V19.9688C23 21.3662 21.8482 22.5 20.4286 22.5H13.5714C12.1518 22.5 11 21.3662 11 19.9688V14.4844C11 13.7856 11.5759 13.2188 12.2857 13.2188H14Z" fill="black"/>
</svg>
