<svg width="34" height="32" viewBox="0 0 34 32" fill="none" xmlns="http://www.w3.org/2000/svg">
<rect width="34" height="32" rx="8" fill="#F5FFED"/>
<path d="M18.313 10.7368C18.313 10.3868 18.5842 10.1053 18.9213 10.1053H19.968C20.5712 10.1053 21.111 10.5026 21.3087 11.0947L21.514 11.7079L22.8066 11.0368C22.9181 10.9789 23.0423 10.9474 23.169 10.9474H23.3819C23.6049 10.9474 23.7874 11.1368 23.7874 11.3684V13.0526C23.7874 13.2842 23.6049 13.4737 23.3819 13.4737H23.169C23.0423 13.4737 22.9181 13.4421 22.8066 13.3842L21.9221 12.9237L22.6722 15.1684C22.7736 15.1605 22.875 15.1579 22.9764 15.1579C24.0839 15.1579 25.0876 15.6184 25.8175 16.3632C26.0583 16.6079 26.0608 17.0079 25.8251 17.2553C25.5894 17.5026 25.2042 17.5079 24.9659 17.2632C24.4514 16.7421 23.7519 16.421 22.9764 16.421C21.5799 16.421 20.4166 17.4684 20.1809 18.85C20.1302 19.1526 19.8768 19.371 19.5828 19.371H18.5158C18.4929 19.371 18.4727 19.371 18.4499 19.3684H17.2992H16.4882C16.4882 20.7632 15.3984 21.8947 14.0551 21.8947C12.7119 21.8947 11.622 20.7632 11.622 19.3684H10.811C10.3624 19.3684 10 18.9921 10 18.5263V17.6842C10 15.8237 11.4522 14.3158 13.2441 14.3158H15.6772C16.1258 14.3158 16.4882 14.6921 16.4882 15.1579V17.2632C16.4882 17.7289 16.8506 18.1053 17.2992 18.1053H18.313H19.1063C19.4738 16.8947 20.3507 15.9184 21.4785 15.4553L20.1581 11.5105C20.1302 11.4263 20.0516 11.3684 19.9655 11.3684H18.9213C18.5842 11.3684 18.313 11.0868 18.313 10.7368ZM13.0413 12.2105H15.8799C16.217 12.2105 16.4882 12.4921 16.4882 12.8421C16.4882 13.1921 16.217 13.4737 15.8799 13.4737H13.0413C12.7043 13.4737 12.4331 13.1921 12.4331 12.8421C12.4331 12.4921 12.7043 12.2105 13.0413 12.2105ZM15.2717 15.5789H13.2441C12.1239 15.5789 11.2165 16.521 11.2165 17.6842V18.1053H15.4415C15.3325 17.8474 15.2717 17.5632 15.2717 17.2632V15.5789ZM14.0551 20.6316C14.7267 20.6316 15.2717 20.0658 15.2717 19.3684H12.8386C12.8386 20.0658 13.3835 20.6316 14.0551 20.6316ZM22.9764 20.6316C23.299 20.6316 23.6085 20.4985 23.8366 20.2616C24.0647 20.0247 24.1929 19.7034 24.1929 19.3684C24.1929 19.0334 24.0647 18.7121 23.8366 18.4752C23.6085 18.2383 23.299 18.1053 22.9764 18.1053C22.6537 18.1053 22.3443 18.2383 22.1162 18.4752C21.888 18.7121 21.7598 19.0334 21.7598 19.3684C21.7598 19.7034 21.888 20.0247 22.1162 20.2616C22.3443 20.4985 22.6537 20.6316 22.9764 20.6316ZM22.9764 16.8421C23.6217 16.8421 24.2405 17.1083 24.6968 17.582C25.1531 18.0558 25.4095 18.6984 25.4095 19.3684C25.4095 20.0384 25.1531 20.681 24.6968 21.1548C24.2405 21.6286 23.6217 21.8947 22.9764 21.8947C22.3311 21.8947 21.7122 21.6286 21.2559 21.1548C20.7997 20.681 20.5433 20.0384 20.5433 19.3684C20.5433 18.6984 20.7997 18.0558 21.2559 17.582C21.7122 17.1083 22.3311 16.8421 22.9764 16.8421Z" fill="black"/>
</svg>
