<svg width="16" height="12" viewBox="0 0 16 12" fill="none" xmlns="http://www.w3.org/2000/svg">
<path d="M8.31299 0.736834C8.31299 0.386834 8.58418 0.105255 8.92126 0.105255H9.96799C10.5712 0.105255 11.111 0.502624 11.3087 1.09473L11.514 1.70789L12.8066 1.03683C12.9181 0.978939 13.0423 0.94736 13.169 0.94736H13.3819C13.6049 0.94736 13.7874 1.13683 13.7874 1.36841V3.05262C13.7874 3.2842 13.6049 3.47368 13.3819 3.47368H13.169C13.0423 3.47368 12.9181 3.4421 12.8066 3.3842L11.9221 2.92368L12.6722 5.16841C12.7736 5.16052 12.875 5.15789 12.9764 5.15789C14.0839 5.15789 15.0876 5.61841 15.8175 6.36315C16.0583 6.60789 16.0608 7.00789 15.8251 7.25526C15.5894 7.50262 15.2042 7.50789 14.9659 7.26315C14.4514 6.7421 13.7519 6.42105 12.9764 6.42105C11.5799 6.42105 10.4166 7.46841 10.1809 8.84999C10.1302 9.15262 9.87675 9.37105 9.58275 9.37105H8.51575C8.49294 9.37105 8.47266 9.37105 8.44985 9.36841H7.29921H6.48819C6.48819 10.7632 5.39838 11.8947 4.05512 11.8947C2.71186 11.8947 1.62205 10.7632 1.62205 9.36841H0.811024C0.362426 9.36841 0 8.9921 0 8.52631V7.6842C0 5.82368 1.45224 4.31578 3.2441 4.31578H5.67717C6.12576 4.31578 6.48819 4.6921 6.48819 5.15789V7.26315C6.48819 7.72894 6.85062 8.10526 7.29921 8.10526H8.31299H9.10628C9.47377 6.89473 10.3507 5.91841 11.4785 5.45526L10.1581 1.51052C10.1302 1.42631 10.0516 1.36841 9.96546 1.36841H8.92126C8.58418 1.36841 8.31299 1.08683 8.31299 0.736834ZM3.04134 2.21052H5.87992C6.21701 2.21052 6.48819 2.4921 6.48819 2.8421C6.48819 3.1921 6.21701 3.47368 5.87992 3.47368H3.04134C2.70426 3.47368 2.43307 3.1921 2.43307 2.8421C2.43307 2.4921 2.70426 2.21052 3.04134 2.21052ZM5.27166 5.57894H3.2441C2.12387 5.57894 1.21654 6.52105 1.21654 7.6842V8.10526H5.44146C5.33248 7.84736 5.27166 7.56315 5.27166 7.26315V5.57894ZM4.05512 10.6316C4.72675 10.6316 5.27166 10.0658 5.27166 9.36841H2.83858C2.83858 10.0658 3.38349 10.6316 4.05512 10.6316ZM12.9764 10.6316C13.299 10.6316 13.6085 10.4985 13.8366 10.2616C14.0647 10.0247 14.1929 9.70342 14.1929 9.36841C14.1929 9.0334 14.0647 8.71211 13.8366 8.47523C13.6085 8.23834 13.299 8.10526 12.9764 8.10526C12.6537 8.10526 12.3443 8.23834 12.1162 8.47523C11.888 8.71211 11.7598 9.0334 11.7598 9.36841C11.7598 9.70342 11.888 10.0247 12.1162 10.2616C12.3443 10.4985 12.6537 10.6316 12.9764 10.6316ZM12.9764 6.8421C13.6217 6.8421 14.2405 7.10826 14.6968 7.58204C15.1531 8.05581 15.4095 8.69839 15.4095 9.36841C15.4095 10.0384 15.1531 10.681 14.6968 11.1548C14.2405 11.6286 13.6217 11.8947 12.9764 11.8947C12.3311 11.8947 11.7122 11.6286 11.2559 11.1548C10.7997 10.681 10.5433 10.0384 10.5433 9.36841C10.5433 8.69839 10.7997 8.05581 11.2559 7.58204C11.7122 7.10826 12.3311 6.8421 12.9764 6.8421Z" fill="black"/>
</svg>
