<svg width="10" height="14" viewBox="0 0 10 14" fill="none" xmlns="http://www.w3.org/2000/svg">
<path d="M5.61719 13.2083C6.95312 11.574 10 7.61297 10 5.38808C10 2.68969 7.76042 0.500427 5 0.500427C2.23958 0.500427 0 2.68969 0 5.38808C0 7.61297 3.04688 11.574 4.38281 13.2083C4.70312 13.5978 5.29688 13.5978 5.61719 13.2083ZM5 3.75886C5.44203 3.75886 5.86595 3.93051 6.17851 4.23605C6.49107 4.54158 6.66667 4.95598 6.66667 5.38808C6.66667 5.82017 6.49107 6.23457 6.17851 6.54011C5.86595 6.84564 5.44203 7.01729 5 7.01729C4.55797 7.01729 4.13405 6.84564 3.82149 6.54011C3.50893 6.23457 3.33333 5.82017 3.33333 5.38808C3.33333 4.95598 3.50893 4.54158 3.82149 4.23605C4.13405 3.93051 4.55797 3.75886 5 3.75886Z" fill="#121212"/>
</svg>
