<svg width="34" height="32" viewBox="0 0 34 32" fill="none" xmlns="http://www.w3.org/2000/svg">
<rect width="34" height="32" rx="8" fill="#F5FFED"/>
<path d="M22.188 12.4146C22.3319 12.6571 22.3468 12.9551 22.2451 13.2082C22.1483 13.4508 21.9696 13.5984 21.7463 13.6301C21.6966 13.638 21.6495 13.6406 21.6023 13.6406C21.312 13.6406 21.0514 13.5062 20.8653 13.2926C20.6395 13.0289 20.3193 12.8786 19.9818 12.8786C19.6443 12.8786 19.3242 13.0315 19.1009 13.2952C18.9197 13.5088 18.6616 13.6433 18.3663 13.6433C18.0735 13.6433 17.8129 13.5088 17.6317 13.2952C17.4059 13.0289 17.0858 12.8786 16.7483 12.8786C16.4108 12.8786 16.0906 13.0289 15.8648 13.2952C15.6837 13.5088 15.4256 13.6433 15.1303 13.6433C14.8374 13.6433 14.5768 13.5088 14.3957 13.2952C14.1699 13.0289 13.8497 12.8786 13.5122 12.8786C13.1747 12.8786 12.8546 13.0289 12.6288 13.2952C12.4476 13.5088 12.1895 13.6433 11.8942 13.6433C11.8495 13.6433 11.7999 13.6406 11.7503 13.6327C11.5294 13.6011 11.3532 13.4534 11.2564 13.2108C11.1547 12.9577 11.1696 12.6598 11.3135 12.4172L12.5915 10.2656H20.91L22.188 12.4146ZM21.6023 14.9062C21.7041 14.9062 21.8034 14.8983 21.9001 14.8852C23.2774 14.69 23.9301 12.9735 23.1931 11.7369L21.7711 9.34541C21.6445 9.13184 21.4187 9 21.178 9H12.3235C12.0828 9 11.857 9.13184 11.7304 9.34541L10.306 11.7369C9.5714 12.9709 10.2216 14.6874 11.5939 14.8852C11.6932 14.8983 11.7949 14.9062 11.8942 14.9062C12.3806 14.9062 12.8248 14.7375 13.1822 14.458C13.3013 14.3657 13.4105 14.2576 13.5097 14.1442C13.609 14.2603 13.7182 14.3657 13.8373 14.458C14.1972 14.7375 14.6414 14.9062 15.1278 14.9062C15.6142 14.9062 16.0584 14.7375 16.4182 14.458C16.5373 14.3657 16.6465 14.2576 16.7458 14.1416C16.8451 14.2576 16.9543 14.3631 17.0734 14.4554C17.4332 14.7349 17.8774 14.9036 18.3638 14.9036C18.8552 14.9036 19.3019 14.7322 19.6617 14.4475C19.7783 14.3552 19.8851 14.2523 19.9818 14.139C20.0786 14.2523 20.1878 14.3578 20.3045 14.4501C20.6643 14.7322 21.111 14.9036 21.5999 14.9036L21.6023 14.9062ZM12.3831 17.8594V15.7078C12.2243 15.7368 12.063 15.75 11.8967 15.75C11.7602 15.75 11.6237 15.7395 11.4922 15.721H11.4897C11.388 15.7052 11.2887 15.6867 11.1919 15.6604V17.8594V19.125V20.8125C11.1919 21.7433 11.9041 22.5 12.7801 22.5H20.7214C21.5974 22.5 22.3096 21.7433 22.3096 20.8125V19.125V17.8594V15.6604C22.2103 15.6867 22.1111 15.7078 22.0044 15.721C22.0044 15.721 22.0044 15.721 22.0019 15.721C21.8704 15.7395 21.7364 15.75 21.5999 15.75C21.4361 15.75 21.2748 15.7368 21.1184 15.7078V17.8594H12.3831ZM21.1184 19.125V20.8125C21.1184 21.0445 20.9397 21.2344 20.7214 21.2344H12.7801C12.5618 21.2344 12.3831 21.0445 12.3831 20.8125V19.125H21.1184Z" fill="#121212"/>
</svg>
