<svg width="12" height="14" viewBox="0 0 12 14" fill="none" xmlns="http://www.w3.org/2000/svg">
<path d="M4.28571 3.45312V4.71875H7.71429V3.45312C7.71429 2.52236 6.94554 1.76562 6 1.76562C5.05446 1.76562 4.28571 2.52236 4.28571 3.45312ZM3 5.98438H1.28571V11.4688C1.28571 12.1675 1.86161 12.7344 2.57143 12.7344H9.42857C10.1384 12.7344 10.7143 12.1675 10.7143 11.4688V5.98438H9V7.46094C9 7.81162 8.71339 8.09375 8.35714 8.09375C8.00089 8.09375 7.71429 7.81162 7.71429 7.46094V5.98438H4.28571V7.46094C4.28571 7.81162 3.99911 8.09375 3.64286 8.09375C3.28661 8.09375 3 7.81162 3 7.46094V5.98438ZM3 4.71875V3.45312C3 1.821 4.34196 0.5 6 0.5C7.65804 0.5 9 1.821 9 3.45312V4.71875H10.7143C11.4241 4.71875 12 5.28564 12 5.98438V11.4688C12 12.8662 10.8482 14 9.42857 14H2.57143C1.15179 14 0 12.8662 0 11.4688V5.98438C0 5.28564 0.575893 4.71875 1.28571 4.71875H3Z" fill="black"/>
</svg>
