<svg width="11" height="10" viewBox="0 0 11 10" fill="none" xmlns="http://www.w3.org/2000/svg">
<path d="M0.532258 0C0.237298 0 0 0.257212 0 0.576923V1.73077C0 2.05048 0.237298 2.30769 0.532258 2.30769H1.59677C1.89173 2.30769 2.12903 2.05048 2.12903 1.73077V0.576923C2.12903 0.257212 1.89173 0 1.59677 0H0.532258ZM3.90323 0.384615C3.51069 0.384615 3.19355 0.728365 3.19355 1.15385C3.19355 1.57933 3.51069 1.92308 3.90323 1.92308H10.2903C10.6829 1.92308 11 1.57933 11 1.15385C11 0.728365 10.6829 0.384615 10.2903 0.384615H3.90323ZM3.90323 4.23077C3.51069 4.23077 3.19355 4.57452 3.19355 5C3.19355 5.42548 3.51069 5.76923 3.90323 5.76923H10.2903C10.6829 5.76923 11 5.42548 11 5C11 4.57452 10.6829 4.23077 10.2903 4.23077H3.90323ZM3.90323 8.07692C3.51069 8.07692 3.19355 8.42067 3.19355 8.84615C3.19355 9.27164 3.51069 9.61539 3.90323 9.61539H10.2903C10.6829 9.61539 11 9.27164 11 8.84615C11 8.42067 10.6829 8.07692 10.2903 8.07692H3.90323ZM0 4.42308V5.57692C0 5.89663 0.237298 6.15385 0.532258 6.15385H1.59677C1.89173 6.15385 2.12903 5.89663 2.12903 5.57692V4.42308C2.12903 4.10337 1.89173 3.84615 1.59677 3.84615H0.532258C0.237298 3.84615 0 4.10337 0 4.42308ZM0.532258 7.69231C0.237298 7.69231 0 7.94952 0 8.26923V9.42308C0 9.74279 0.237298 10 0.532258 10H1.59677C1.89173 10 2.12903 9.74279 2.12903 9.42308V8.26923C2.12903 7.94952 1.89173 7.69231 1.59677 7.69231H0.532258Z" fill="#4A4459"/>
</svg>
