<svg width="14" height="14" viewBox="0 0 14 14" fill="none" xmlns="http://www.w3.org/2000/svg">
<path d="M12.188 3.41455C12.3319 3.65713 12.3468 3.95508 12.2451 4.2082C12.1483 4.45078 11.9696 4.59844 11.7463 4.63008C11.6966 4.63799 11.6495 4.64062 11.6023 4.64062C11.312 4.64062 11.0514 4.50615 10.8653 4.29258C10.6395 4.02891 10.3193 3.87861 9.98184 3.87861C9.64434 3.87861 9.32421 4.03154 9.10086 4.29521C8.9197 4.50879 8.66161 4.64326 8.3663 4.64326C8.07347 4.64326 7.81289 4.50879 7.63174 4.29521C7.40591 4.02891 7.08578 3.87861 6.74827 3.87861C6.41077 3.87861 6.09064 4.02891 5.86481 4.29521C5.68365 4.50879 5.42557 4.64326 5.13025 4.64326C4.83742 4.64326 4.57685 4.50879 4.39569 4.29521C4.16986 4.02891 3.84973 3.87861 3.51223 3.87861C3.17473 3.87861 2.8546 4.02891 2.62877 4.29521C2.44761 4.50879 2.18952 4.64326 1.8942 4.64326C1.84954 4.64326 1.7999 4.64062 1.75027 4.63271C1.52941 4.60107 1.35321 4.45342 1.25643 4.21084C1.15468 3.95771 1.16957 3.65977 1.3135 3.41719L2.59154 1.26562H10.91L12.188 3.41455ZM11.6023 5.90625C11.7041 5.90625 11.8034 5.89834 11.9001 5.88516C13.2774 5.69004 13.9301 3.97354 13.1931 2.73691L11.7711 0.34541C11.6445 0.131836 11.4187 0 11.178 0H2.32353C2.08281 0 1.85698 0.131836 1.73042 0.34541L0.305961 2.73691C-0.428602 3.9709 0.221586 5.6874 1.59393 5.88516C1.69319 5.89834 1.79494 5.90625 1.8942 5.90625C2.3806 5.90625 2.82482 5.7375 3.18217 5.45801C3.30129 5.36572 3.41048 5.25762 3.50975 5.14424C3.60901 5.26025 3.7182 5.36572 3.83732 5.45801C4.19716 5.7375 4.64137 5.90625 5.12777 5.90625C5.61417 5.90625 6.05838 5.7375 6.41822 5.45801C6.53734 5.36572 6.64653 5.25762 6.74579 5.1416C6.84506 5.25762 6.95425 5.36309 7.07337 5.45537C7.43321 5.73486 7.87742 5.90361 8.36382 5.90361C8.85518 5.90361 9.30187 5.73223 9.66171 5.44746C9.77835 5.35518 9.88506 5.25234 9.98184 5.13896C10.0786 5.25234 10.1878 5.35781 10.3045 5.4501C10.6643 5.73223 11.111 5.90361 11.5999 5.90361L11.6023 5.90625ZM2.38309 8.85938V6.70781C2.22426 6.73682 2.06296 6.75 1.89669 6.75C1.7602 6.75 1.62371 6.73945 1.49218 6.721H1.4897C1.38795 6.70518 1.28869 6.68672 1.1919 6.66035V8.85938V10.125V11.8125C1.1919 12.7433 1.90413 13.5 2.78015 13.5H10.7214C11.5974 13.5 12.3096 12.7433 12.3096 11.8125V10.125V8.85938V6.66035C12.2103 6.68672 12.1111 6.70781 12.0044 6.721C12.0044 6.721 12.0044 6.721 12.0019 6.721C11.8704 6.73945 11.7364 6.75 11.5999 6.75C11.4361 6.75 11.2748 6.73682 11.1184 6.70781V8.85938H2.38309ZM11.1184 10.125V11.8125C11.1184 12.0445 10.9397 12.2344 10.7214 12.2344H2.78015C2.56176 12.2344 2.38309 12.0445 2.38309 11.8125V10.125H11.1184Z" fill="#121212"/>
</svg>
