<svg width="18" height="17" viewBox="0 0 18 17" fill="none" xmlns="http://www.w3.org/2000/svg">
<g style="mix-blend-mode:plus-darker">
<path d="M0.90918 6.94629C0.90918 6.0332 1.08073 5.17822 1.42383 4.38135C1.76693 3.57894 2.24284 2.87337 2.85156 2.26465C3.46029 1.65592 4.16309 1.18001 4.95996 0.836914C5.76237 0.493815 6.62012 0.322266 7.5332 0.322266C8.44629 0.322266 9.30127 0.493815 10.0981 0.836914C10.9006 1.18001 11.6061 1.65592 12.2148 2.26465C12.8236 2.87337 13.2995 3.57894 13.6426 4.38135C13.9857 5.17822 14.1572 6.0332 14.1572 6.94629C14.1572 7.70443 14.0355 8.42383 13.792 9.10449C13.554 9.78516 13.222 10.4022 12.7959 10.9556L16.855 15.0396C16.9435 15.1281 17.0099 15.2305 17.0542 15.3467C17.104 15.4629 17.1289 15.5874 17.1289 15.7202C17.1289 15.9028 17.0874 16.0688 17.0044 16.2183C16.9269 16.3677 16.8162 16.4839 16.6724 16.5669C16.5285 16.6554 16.3625 16.6997 16.1743 16.6997C16.0415 16.6997 15.9142 16.6748 15.7925 16.625C15.6763 16.5807 15.5684 16.5116 15.4688 16.4175L11.3848 12.3252C10.8424 12.7126 10.2448 13.0169 9.5918 13.2383C8.9388 13.4596 8.2526 13.5703 7.5332 13.5703C6.62012 13.5703 5.76237 13.3988 4.95996 13.0557C4.16309 12.7126 3.46029 12.2367 2.85156 11.6279C2.24284 11.0192 1.76693 10.3164 1.42383 9.51953C1.08073 8.71712 0.90918 7.85938 0.90918 6.94629ZM2.32861 6.94629C2.32861 7.66569 2.46143 8.34082 2.72705 8.97168C2.99821 9.59701 3.37174 10.1476 3.84766 10.6235C4.3291 11.0994 4.88249 11.473 5.50781 11.7441C6.13867 12.0153 6.8138 12.1509 7.5332 12.1509C8.2526 12.1509 8.92497 12.0153 9.55029 11.7441C10.1812 11.473 10.7345 11.0994 11.2104 10.6235C11.6864 10.1476 12.0599 9.59701 12.3311 8.97168C12.6022 8.34082 12.7378 7.66569 12.7378 6.94629C12.7378 6.22689 12.6022 5.55452 12.3311 4.9292C12.0599 4.29834 11.6864 3.74495 11.2104 3.26904C10.7345 2.7876 10.1812 2.41406 9.55029 2.14844C8.92497 1.87728 8.2526 1.7417 7.5332 1.7417C6.8138 1.7417 6.13867 1.87728 5.50781 2.14844C4.88249 2.41406 4.3291 2.7876 3.84766 3.26904C3.37174 3.74495 2.99821 4.29834 2.72705 4.9292C2.46143 5.55452 2.32861 6.22689 2.32861 6.94629Z" fill="#999999"/>
</g>
</svg>
