<svg width="10" height="15" viewBox="0 0 10 15" fill="none" xmlns="http://www.w3.org/2000/svg">
<path d="M4.58544 1.40618C4.58544 1.03322 4.7303 0.675537 4.98816 0.411816C5.24602 0.148096 5.59575 -6.10352e-05 5.96042 -6.10352e-05C6.32509 -6.10352e-05 6.67483 0.148096 6.93269 0.411816C7.19055 0.675537 7.33541 1.03322 7.33541 1.40618C7.33541 1.77913 7.19055 2.13681 6.93269 2.40053C6.67483 2.66426 6.32509 2.81241 5.96042 2.81241C5.59575 2.81241 5.24602 2.66426 4.98816 2.40053C4.7303 2.13681 4.58544 1.77913 4.58544 1.40618ZM3.62581 5.83875C3.59717 5.85047 3.57138 5.86219 3.54274 5.87391L3.31357 5.97644C2.84379 6.19031 2.48285 6.59753 2.31957 7.09557L2.2451 7.32409C2.08468 7.81627 1.5662 8.07994 1.08495 7.91588C0.603705 7.75182 0.345895 7.22155 0.50631 6.72937L0.580789 6.50085C0.907348 5.50184 1.62922 4.68739 2.56879 4.25966L2.79795 4.15712C3.39378 3.8876 4.03831 3.74697 4.69143 3.74697C5.96902 3.74697 7.12057 4.53212 7.61041 5.73621L8.05155 6.81726L8.66456 7.13073C9.11716 7.36217 9.3005 7.92467 9.0742 8.38755C8.8479 8.85044 8.2979 9.03794 7.8453 8.80649L7.0776 8.41685C6.78255 8.26451 6.55052 8.01256 6.42448 7.69908L6.14948 7.02526L5.59663 8.94419L7.01458 10.5262C7.16927 10.6991 7.27812 10.9071 7.33541 11.1356L7.99426 13.8338C8.11743 14.3348 7.81952 14.8445 7.32682 14.9705C6.83411 15.0965 6.33854 14.7918 6.21537 14.2879L5.58517 11.7069L3.55993 9.44809C3.13597 8.97641 2.97842 8.31724 3.13884 7.69908L3.62295 5.83875H3.62581ZM1.9701 11.66L2.68624 9.83188C2.74639 9.91977 2.81514 10.0018 2.88676 10.0838L4.05263 11.3846L3.63727 12.4451C3.56852 12.6209 3.4654 12.782 3.33363 12.9168L1.5662 14.7244C1.20813 15.0906 0.626621 15.0906 0.268552 14.7244C-0.0895174 14.3582 -0.0895174 13.7635 0.268552 13.3973L1.9701 11.66Z" fill="#121212"/>
</svg>
