<svg width="43" height="40" viewBox="0 0 43 40" fill="none" xmlns="http://www.w3.org/2000/svg">
<rect x="0.5" y="0.499939" width="41.0438" height="39" rx="19.5" fill="#25D366"/>
<rect x="0.5" y="0.499939" width="41.0438" height="39" rx="19.5" stroke="#B2E6C5"/>
<path fill-rule="evenodd" clip-rule="evenodd" d="M29.8793 11.1328C27.5295 8.79128 24.4043 7.50113 21.0744 7.49994C14.213 7.49994 8.62875 13.0568 8.62636 19.8871C8.62517 22.0706 9.19875 24.2018 10.288 26.0801L8.52191 32.4999L15.1208 30.7773C16.9388 31.7646 18.986 32.2843 21.0691 32.2849H21.0744C27.9347 32.2849 33.5196 26.7275 33.5219 19.8972C33.5231 16.5869 32.2297 13.4749 29.8793 11.1334V11.1328ZM21.0744 30.1929H21.0702C19.214 30.1923 17.393 29.6957 15.8042 28.7578L15.4264 28.5345L11.5104 29.5567L12.5555 25.7569L12.3096 25.3673C11.274 23.7279 10.7267 21.833 10.7279 19.8877C10.7303 14.2109 15.3715 9.59198 21.0786 9.59198C23.8421 9.59317 26.4396 10.6653 28.3931 12.6119C30.3466 14.5578 31.4216 17.1452 31.4204 19.896C31.418 25.5734 26.7768 30.1923 21.0744 30.1923V30.1929ZM26.7493 22.4817C26.4384 22.3266 24.9093 21.5782 24.6239 21.4748C24.3386 21.3715 24.1316 21.3198 23.9244 21.6299C23.7173 21.94 23.1211 22.6373 22.9396 22.8434C22.7582 23.0501 22.5767 23.0757 22.2657 22.9206C21.9548 22.7656 20.9527 22.4389 19.7643 21.3845C18.8398 20.5636 18.2155 19.5503 18.0341 19.2402C17.8526 18.9302 18.015 18.7626 18.1701 18.6088C18.3098 18.4698 18.4811 18.2471 18.6368 18.0665C18.7927 17.8859 18.844 17.7565 18.9478 17.5503C19.0517 17.3436 18.9998 17.1631 18.9222 17.008C18.8446 16.853 18.2227 15.3293 17.963 14.7098C17.7105 14.1063 17.4539 14.1883 17.2635 14.1782C17.0821 14.1693 16.875 14.1675 16.6673 14.1675C16.4596 14.1675 16.1229 14.2447 15.8376 14.5548C15.5523 14.8648 14.7489 15.6139 14.7489 17.1369C14.7489 18.6599 15.8633 20.1324 16.0191 20.3391C16.1748 20.5458 18.2125 23.672 21.3323 25.0133C22.0742 25.3322 22.6537 25.5229 23.1055 25.6655C23.8505 25.9013 24.5284 25.868 25.0644 25.7884C25.6619 25.6993 26.9046 25.0394 27.1636 24.3165C27.4226 23.5936 27.4226 22.9734 27.345 22.8446C27.2675 22.7157 27.0598 22.6378 26.7488 22.4828L26.7493 22.4817Z" fill="white"/>
</svg>
